<?xml version="1.0" encoding="UTF-8" standalone="no"?>
<!DOCTYPE svg PUBLIC "-//W3C//DTD SVG 1.1//EN"
 "http://www.w3.org/Graphics/SVG/1.1/DTD/svg11.dtd">
<!-- Generated by graphviz version 2.38.0 (20140413.2041)
 -->
<!-- Title: G Pages: 1 -->
<svg width="652pt" height="420pt"
 viewBox="0.00 0.00 652.37 420.00" xmlns="http://www.w3.org/2000/svg" xmlns:xlink="http://www.w3.org/1999/xlink">
<g id="graph0" class="graph" transform="scale(1 1) rotate(0) translate(4 416)">
<title>G</title>
<polygon fill="white" stroke="none" points="-4,4 -4,-416 648.367,-416 648.367,4 -4,4"/>
<g id="clust1" class="cluster"><title>cluster_Global</title>
<path fill="none" stroke="gray" d="M426.367,-8C426.367,-8 624.367,-8 624.367,-8 630.367,-8 636.367,-14 636.367,-20 636.367,-20 636.367,-392 636.367,-392 636.367,-398 630.367,-404 624.367,-404 624.367,-404 426.367,-404 426.367,-404 420.367,-404 414.367,-398 414.367,-392 414.367,-392 414.367,-20 414.367,-20 414.367,-14 420.367,-8 426.367,-8"/>
<text text-anchor="middle" x="525.367" y="-391.2" font-family="Times,serif" font-size="11.00" fill="gray">Global</text>
</g>
<g id="clust2" class="cluster"><title>cluster_\UniAlteri</title>
<path fill="none" stroke="gray" d="M434.367,-16C434.367,-16 616.367,-16 616.367,-16 622.367,-16 628.367,-22 628.367,-28 628.367,-28 628.367,-364 628.367,-364 628.367,-370 622.367,-376 616.367,-376 616.367,-376 434.367,-376 434.367,-376 428.367,-376 422.367,-370 422.367,-364 422.367,-364 422.367,-28 422.367,-28 422.367,-22 428.367,-16 434.367,-16"/>
<text text-anchor="middle" x="525.367" y="-363.2" font-family="Times,serif" font-size="11.00" fill="gray">UniAlteri</text>
</g>
<g id="clust3" class="cluster"><title>cluster_\UniAlteri\Bundle</title>
<path fill="none" stroke="gray" d="M442.367,-24C442.367,-24 608.367,-24 608.367,-24 614.367,-24 620.367,-30 620.367,-36 620.367,-36 620.367,-336 620.367,-336 620.367,-342 614.367,-348 608.367,-348 608.367,-348 442.367,-348 442.367,-348 436.367,-348 430.367,-342 430.367,-336 430.367,-336 430.367,-36 430.367,-36 430.367,-30 436.367,-24 442.367,-24"/>
<text text-anchor="middle" x="525.367" y="-335.2" font-family="Times,serif" font-size="11.00" fill="gray">Bundle</text>
</g>
<g id="clust4" class="cluster"><title>cluster_\UniAlteri\Bundle\StatesBundle</title>
<path fill="none" stroke="gray" d="M450.367,-32C450.367,-32 600.367,-32 600.367,-32 606.367,-32 612.367,-38 612.367,-44 612.367,-44 612.367,-308 612.367,-308 612.367,-314 606.367,-320 600.367,-320 600.367,-320 450.367,-320 450.367,-320 444.367,-320 438.367,-314 438.367,-308 438.367,-308 438.367,-44 438.367,-44 438.367,-38 444.367,-32 450.367,-32"/>
<text text-anchor="middle" x="525.367" y="-307.2" font-family="Times,serif" font-size="11.00" fill="gray">StatesBundle</text>
</g>
<g id="clust5" class="cluster"><title>cluster_\UniAlteri\Bundle\StatesBundle\Factory</title>
<path fill="none" stroke="gray" d="M473.867,-166C473.867,-166 576.867,-166 576.867,-166 582.867,-166 588.867,-172 588.867,-178 588.867,-178 588.867,-280 588.867,-280 588.867,-286 582.867,-292 576.867,-292 576.867,-292 473.867,-292 473.867,-292 467.867,-292 461.867,-286 461.867,-280 461.867,-280 461.867,-178 461.867,-178 461.867,-172 467.867,-166 473.867,-166"/>
<text text-anchor="middle" x="525.367" y="-279.2" font-family="Times,serif" font-size="11.00" fill="gray">Factory</text>
</g>
<g id="clust6" class="cluster"><title>cluster_\UniAlteri\Bundle\StatesBundle\Entity</title>
<path fill="none" stroke="gray" d="M466.867,-86C466.867,-86 583.867,-86 583.867,-86 589.867,-86 595.867,-92 595.867,-98 595.867,-98 595.867,-146 595.867,-146 595.867,-152 589.867,-158 583.867,-158 583.867,-158 466.867,-158 466.867,-158 460.867,-158 454.867,-152 454.867,-146 454.867,-146 454.867,-98 454.867,-98 454.867,-92 460.867,-86 466.867,-86"/>
<text text-anchor="middle" x="525.367" y="-145.2" font-family="Times,serif" font-size="11.00" fill="gray">Entity</text>
</g>
<!-- \\UniAlteri\\Bundle\\StatesBundle\\Factory\\StartupFactory -->
<g id="node1" class="node"><title>\\UniAlteri\\Bundle\\StatesBundle\\Factory\\StartupFactory</title>
<polygon fill="none" stroke="black" points="580.867,-264 469.867,-264 469.867,-228 580.867,-228 580.867,-264"/>
<text text-anchor="middle" x="525.367" y="-243.2" font-family="Courier,monospace" font-size="11.00">StartupFactory</text>
</g>
<!-- \\UniAlteri\\States\\Factory\\StandardStartupFactory -->
<g id="node5" class="node"><title>\\UniAlteri\\States\\Factory\\StandardStartupFactory</title>
<ellipse fill="none" stroke="black" cx="187.183" cy="-246" rx="185.467" ry="18"/>
<text text-anchor="middle" x="187.183" y="-242.3" font-family="Times,serif" font-size="14.00" fill="gray">\UniAlteri\States\Factory\StandardStartupFactory</text>
</g>
<!-- \\UniAlteri\\Bundle\\StatesBundle\\Factory\\StartupFactory&#45;&gt;\\UniAlteri\\States\\Factory\\StandardStartupFactory -->
<g id="edge1" class="edge"><title>\\UniAlteri\\Bundle\\StatesBundle\\Factory\\StartupFactory&#45;&gt;\\UniAlteri\\States\\Factory\\StandardStartupFactory</title>
<path fill="none" stroke="black" d="M469.605,-246C445.177,-246 414.772,-246 383.062,-246"/>
<polygon fill="none" stroke="black" points="382.727,-242.5 372.727,-246 382.727,-249.5 382.727,-242.5"/>
</g>
<!-- \\UniAlteri\\Bundle\\StatesBundle\\Factory\\Integrated -->
<g id="node2" class="node"><title>\\UniAlteri\\Bundle\\StatesBundle\\Factory\\Integrated</title>
<polygon fill="none" stroke="black" points="567.367,-210 483.367,-210 483.367,-174 567.367,-174 567.367,-210"/>
<text text-anchor="middle" x="525.367" y="-189.2" font-family="Courier,monospace" font-size="11.00">Integrated</text>
</g>
<!-- \\UniAlteri\\States\\Factory\\Integrated -->
<g id="node7" class="node"><title>\\UniAlteri\\States\\Factory\\Integrated</title>
<ellipse fill="none" stroke="black" cx="187.183" cy="-192" rx="137.576" ry="18"/>
<text text-anchor="middle" x="187.183" y="-188.3" font-family="Times,serif" font-size="14.00" fill="gray">\UniAlteri\States\Factory\Integrated</text>
</g>
<!-- \\UniAlteri\\Bundle\\StatesBundle\\Factory\\Integrated&#45;&gt;\\UniAlteri\\States\\Factory\\Integrated -->
<g id="edge3" class="edge"><title>\\UniAlteri\\Bundle\\StatesBundle\\Factory\\Integrated&#45;&gt;\\UniAlteri\\States\\Factory\\Integrated</title>
<path fill="none" stroke="black" d="M483.144,-192C446.006,-192 389.113,-192 335.167,-192"/>
<polygon fill="none" stroke="black" points="335.134,-188.5 325.134,-192 335.134,-195.5 335.134,-188.5"/>
</g>
<!-- \\UniAlteri\\Bundle\\StatesBundle\\Entity\\IntegratedEntity -->
<g id="node3" class="node"><title>\\UniAlteri\\Bundle\\StatesBundle\\Entity\\IntegratedEntity</title>
<polygon fill="none" stroke="black" points="587.867,-130 462.867,-130 462.867,-94 587.867,-94 587.867,-130"/>
<text text-anchor="start" x="491.367" y="-115.2" font-family="Courier,monospace" font-size="11.00">«abstract»</text>
<text text-anchor="start" x="470.867" y="-103.2" font-family="Courier,monospace" font-size="11.00">IntegratedEntity</text>
</g>
<!-- \\UniAlteri\\States\\Proxy\\Integrated -->
<g id="node6" class="node"><title>\\UniAlteri\\States\\Proxy\\Integrated</title>
<ellipse fill="none" stroke="black" cx="187.183" cy="-112" rx="131.877" ry="18"/>
<text text-anchor="middle" x="187.183" y="-108.3" font-family="Times,serif" font-size="14.00" fill="gray">\UniAlteri\States\Proxy\Integrated</text>
</g>
<!-- \\UniAlteri\\Bundle\\StatesBundle\\Entity\\IntegratedEntity&#45;&gt;\\UniAlteri\\States\\Proxy\\Integrated -->
<g id="edge2" class="edge"><title>\\UniAlteri\\Bundle\\StatesBundle\\Entity\\IntegratedEntity&#45;&gt;\\UniAlteri\\States\\Proxy\\Integrated</title>
<path fill="none" stroke="black" d="M462.706,-112C425.355,-112 376.094,-112 329.622,-112"/>
<polygon fill="none" stroke="black" points="329.443,-108.5 319.443,-112 329.443,-115.5 329.443,-108.5"/>
</g>
<!-- \\UniAlteri\\Bundle\\StatesBundle\\UniAlteriStatesBundle -->
<g id="node4" class="node"><title>\\UniAlteri\\Bundle\\StatesBundle\\UniAlteriStatesBundle</title>
<polygon fill="none" stroke="black" points="604.367,-76 446.367,-76 446.367,-40 604.367,-40 604.367,-76"/>
<text text-anchor="middle" x="525.367" y="-55.2" font-family="Courier,monospace" font-size="11.00">UniAlteriStatesBundle</text>
</g>
<!-- \\Symfony\\Component\\HttpKernel\\Bundle\\Bundle -->
<g id="node8" class="node"><title>\\Symfony\\Component\\HttpKernel\\Bundle\\Bundle</title>
<ellipse fill="none" stroke="black" cx="187.183" cy="-58" rx="187.367" ry="18"/>
<text text-anchor="middle" x="187.183" y="-54.3" font-family="Times,serif" font-size="14.00" fill="gray">\Symfony\Component\HttpKernel\Bundle\Bundle</text>
</g>
<!-- \\UniAlteri\\Bundle\\StatesBundle\\UniAlteriStatesBundle&#45;&gt;\\Symfony\\Component\\HttpKernel\\Bundle\\Bundle -->
<g id="edge4" class="edge"><title>\\UniAlteri\\Bundle\\StatesBundle\\UniAlteriStatesBundle&#45;&gt;\\Symfony\\Component\\HttpKernel\\Bundle\\Bundle</title>
<path fill="none" stroke="black" d="M445.971,-58C427.211,-58 406.344,-58 384.834,-58"/>
<polygon fill="none" stroke="black" points="384.571,-54.5001 374.571,-58 384.571,-61.5001 384.571,-54.5001"/>
</g>
</g>
</svg>
