<?xml version="1.0" encoding="UTF-8" standalone="no"?>
<!DOCTYPE svg PUBLIC "-//W3C//DTD SVG 1.1//EN"
 "http://www.w3.org/Graphics/SVG/1.1/DTD/svg11.dtd">
<!-- Generated by graphviz version 2.38.0 (20140413.2041)
 -->
<!-- Title: G Pages: 1 -->
<svg width="654pt" height="662pt"
 viewBox="0.00 0.00 653.87 662.00" xmlns="http://www.w3.org/2000/svg" xmlns:xlink="http://www.w3.org/1999/xlink">
<g id="graph0" class="graph" transform="scale(1 1) rotate(0) translate(4 658)">
<title>G</title>
<polygon fill="white" stroke="none" points="-4,4 -4,-658 649.867,-658 649.867,4 -4,4"/>
<g id="clust1" class="cluster"><title>cluster_Global</title>
<path fill="none" stroke="gray" d="M424.867,-8C424.867,-8 625.867,-8 625.867,-8 631.867,-8 637.867,-14 637.867,-20 637.867,-20 637.867,-634 637.867,-634 637.867,-640 631.867,-646 625.867,-646 625.867,-646 424.867,-646 424.867,-646 418.867,-646 412.867,-640 412.867,-634 412.867,-634 412.867,-20 412.867,-20 412.867,-14 418.867,-8 424.867,-8"/>
<text text-anchor="middle" x="525.367" y="-633.2" font-family="Times,serif" font-size="11.00" fill="gray">Global</text>
</g>
<g id="clust2" class="cluster"><title>cluster_\UniAlteri</title>
<path fill="none" stroke="gray" d="M432.867,-16C432.867,-16 617.867,-16 617.867,-16 623.867,-16 629.867,-22 629.867,-28 629.867,-28 629.867,-606 629.867,-606 629.867,-612 623.867,-618 617.867,-618 617.867,-618 432.867,-618 432.867,-618 426.867,-618 420.867,-612 420.867,-606 420.867,-606 420.867,-28 420.867,-28 420.867,-22 426.867,-16 432.867,-16"/>
<text text-anchor="middle" x="525.367" y="-605.2" font-family="Times,serif" font-size="11.00" fill="gray">UniAlteri</text>
</g>
<g id="clust3" class="cluster"><title>cluster_\UniAlteri\Bundle</title>
<path fill="none" stroke="gray" d="M440.867,-24C440.867,-24 609.867,-24 609.867,-24 615.867,-24 621.867,-30 621.867,-36 621.867,-36 621.867,-578 621.867,-578 621.867,-584 615.867,-590 609.867,-590 609.867,-590 440.867,-590 440.867,-590 434.867,-590 428.867,-584 428.867,-578 428.867,-578 428.867,-36 428.867,-36 428.867,-30 434.867,-24 440.867,-24"/>
<text text-anchor="middle" x="525.367" y="-577.2" font-family="Times,serif" font-size="11.00" fill="gray">Bundle</text>
</g>
<g id="clust4" class="cluster"><title>cluster_\UniAlteri\Bundle\StatesBundle</title>
<path fill="none" stroke="gray" d="M448.867,-32C448.867,-32 601.867,-32 601.867,-32 607.867,-32 613.867,-38 613.867,-44 613.867,-44 613.867,-550 613.867,-550 613.867,-556 607.867,-562 601.867,-562 601.867,-562 448.867,-562 448.867,-562 442.867,-562 436.867,-556 436.867,-550 436.867,-550 436.867,-44 436.867,-44 436.867,-38 442.867,-32 448.867,-32"/>
<text text-anchor="middle" x="525.367" y="-549.2" font-family="Times,serif" font-size="11.00" fill="gray">StatesBundle</text>
</g>
<g id="clust5" class="cluster"><title>cluster_\UniAlteri\Bundle\StatesBundle\Document</title>
<path fill="none" stroke="gray" d="M460.367,-408C460.367,-408 590.367,-408 590.367,-408 596.367,-408 602.367,-414 602.367,-420 602.367,-420 602.367,-522 602.367,-522 602.367,-528 596.367,-534 590.367,-534 590.367,-534 460.367,-534 460.367,-534 454.367,-534 448.367,-528 448.367,-522 448.367,-522 448.367,-420 448.367,-420 448.367,-414 454.367,-408 460.367,-408"/>
<text text-anchor="middle" x="525.367" y="-521.2" font-family="Times,serif" font-size="11.00" fill="gray">Document</text>
</g>
<g id="clust6" class="cluster"><title>cluster_\UniAlteri\Bundle\StatesBundle\Entity</title>
<path fill="none" stroke="gray" d="M466.867,-274C466.867,-274 583.867,-274 583.867,-274 589.867,-274 595.867,-280 595.867,-286 595.867,-286 595.867,-388 595.867,-388 595.867,-394 589.867,-400 583.867,-400 583.867,-400 466.867,-400 466.867,-400 460.867,-400 454.867,-394 454.867,-388 454.867,-388 454.867,-286 454.867,-286 454.867,-280 460.867,-274 466.867,-274"/>
<text text-anchor="middle" x="525.367" y="-387.2" font-family="Times,serif" font-size="11.00" fill="gray">Entity</text>
</g>
<g id="clust7" class="cluster"><title>cluster_\UniAlteri\Bundle\StatesBundle\Factory</title>
<path fill="none" stroke="gray" d="M456.867,-86C456.867,-86 593.867,-86 593.867,-86 599.867,-86 605.867,-92 605.867,-98 605.867,-98 605.867,-254 605.867,-254 605.867,-260 599.867,-266 593.867,-266 593.867,-266 456.867,-266 456.867,-266 450.867,-266 444.867,-260 444.867,-254 444.867,-254 444.867,-98 444.867,-98 444.867,-92 450.867,-86 456.867,-86"/>
<text text-anchor="middle" x="525.367" y="-253.2" font-family="Times,serif" font-size="11.00" fill="gray">Factory</text>
</g>
<!-- \\UniAlteri\\Bundle\\StatesBundle\\Document\\IntegratedDocument -->
<g id="node1" class="node"><title>\\UniAlteri\\Bundle\\StatesBundle\\Document\\IntegratedDocument</title>
<polygon fill="none" stroke="black" points="594.367,-506 456.367,-506 456.367,-470 594.367,-470 594.367,-506"/>
<text text-anchor="start" x="491.367" y="-491.2" font-family="Courier,monospace" font-size="11.00">«abstract»</text>
<text text-anchor="start" x="464.367" y="-479.2" font-family="Courier,monospace" font-size="11.00">IntegratedDocument</text>
</g>
<!-- \\UniAlteri\\States\\Proxy\\ProxyInterface -->
<g id="node9" class="node"><title>\\UniAlteri\\States\\Proxy\\ProxyInterface</title>
<ellipse fill="none" stroke="black" cx="187.183" cy="-468" rx="148.374" ry="18"/>
<text text-anchor="middle" x="187.183" y="-464.3" font-family="Times,serif" font-size="14.00" fill="gray">\UniAlteri\States\Proxy\ProxyInterface</text>
</g>
<!-- \\UniAlteri\\Bundle\\StatesBundle\\Document\\IntegratedDocument&#45;&gt;\\UniAlteri\\States\\Proxy\\ProxyInterface -->
<g id="edge1" class="edge"><title>\\UniAlteri\\Bundle\\StatesBundle\\Document\\IntegratedDocument&#45;&gt;\\UniAlteri\\States\\Proxy\\ProxyInterface</title>
<path fill="none" stroke="black" stroke-dasharray="1,5" d="M456.335,-483.953C420.202,-481.803 374.369,-479.076 330.862,-476.488"/>
<polygon fill="none" stroke="black" points="330.933,-472.986 320.743,-475.886 330.517,-479.974 330.933,-472.986"/>
</g>
<!-- \\UniAlteri\\States\\Proxy\\IntegratedInterface -->
<g id="node10" class="node"><title>\\UniAlteri\\States\\Proxy\\IntegratedInterface</title>
<ellipse fill="none" stroke="black" cx="187.183" cy="-374" rx="163.271" ry="18"/>
<text text-anchor="middle" x="187.183" y="-370.3" font-family="Times,serif" font-size="14.00" fill="gray">\UniAlteri\States\Proxy\IntegratedInterface</text>
</g>
<!-- \\UniAlteri\\Bundle\\StatesBundle\\Document\\IntegratedDocument&#45;&gt;\\UniAlteri\\States\\Proxy\\IntegratedInterface -->
<g id="edge2" class="edge"><title>\\UniAlteri\\Bundle\\StatesBundle\\Document\\IntegratedDocument&#45;&gt;\\UniAlteri\\States\\Proxy\\IntegratedInterface</title>
<path fill="none" stroke="black" stroke-dasharray="1,5" d="M456.359,-474.302C441.809,-470.606 426.669,-466.169 412.867,-461 394.809,-454.237 392.033,-448.726 374.367,-441 334.062,-423.373 287.492,-406.616 251.011,-394.269"/>
<polygon fill="none" stroke="black" points="252.078,-390.936 241.484,-391.068 249.848,-397.571 252.078,-390.936"/>
</g>
<!-- \\UniAlteri\\Bundle\\StatesBundle\\Document\\IntegratedTrait -->
<g id="node2" class="node"><title>\\UniAlteri\\Bundle\\StatesBundle\\Document\\IntegratedTrait</title>
<polygon fill="none" stroke="black" points="584.367,-452 466.367,-452 466.367,-416 584.367,-416 584.367,-452"/>
<text text-anchor="middle" x="525.367" y="-431.2" font-family="Courier,monospace" font-size="11.00">IntegratedTrait</text>
</g>
<!-- \\UniAlteri\\Bundle\\StatesBundle\\Entity\\IntegratedEntity -->
<g id="node3" class="node"><title>\\UniAlteri\\Bundle\\StatesBundle\\Entity\\IntegratedEntity</title>
<polygon fill="none" stroke="black" points="587.867,-372 462.867,-372 462.867,-336 587.867,-336 587.867,-372"/>
<text text-anchor="start" x="491.367" y="-357.2" font-family="Courier,monospace" font-size="11.00">«abstract»</text>
<text text-anchor="start" x="470.867" y="-345.2" font-family="Courier,monospace" font-size="11.00">IntegratedEntity</text>
</g>
<!-- \\UniAlteri\\Bundle\\StatesBundle\\Entity\\IntegratedEntity&#45;&gt;\\UniAlteri\\States\\Proxy\\ProxyInterface -->
<g id="edge3" class="edge"><title>\\UniAlteri\\Bundle\\StatesBundle\\Entity\\IntegratedEntity&#45;&gt;\\UniAlteri\\States\\Proxy\\ProxyInterface</title>
<path fill="none" stroke="black" stroke-dasharray="1,5" d="M471.098,-372.064C410.378,-392.654 311.368,-426.228 248.034,-447.705"/>
<polygon fill="none" stroke="black" points="246.533,-444.518 238.187,-451.044 248.781,-451.147 246.533,-444.518"/>
</g>
<!-- \\UniAlteri\\Bundle\\StatesBundle\\Entity\\IntegratedEntity&#45;&gt;\\UniAlteri\\States\\Proxy\\IntegratedInterface -->
<g id="edge4" class="edge"><title>\\UniAlteri\\Bundle\\StatesBundle\\Entity\\IntegratedEntity&#45;&gt;\\UniAlteri\\States\\Proxy\\IntegratedInterface</title>
<path fill="none" stroke="black" stroke-dasharray="1,5" d="M462.706,-357.668C428.413,-359.708 384.081,-362.346 341.085,-364.904"/>
<polygon fill="none" stroke="black" points="340.842,-361.412 331.068,-365.5 341.258,-368.399 340.842,-361.412"/>
</g>
<!-- \\UniAlteri\\Bundle\\StatesBundle\\Entity\\IntegratedTrait -->
<g id="node4" class="node"><title>\\UniAlteri\\Bundle\\StatesBundle\\Entity\\IntegratedTrait</title>
<polygon fill="none" stroke="black" points="584.367,-318 466.367,-318 466.367,-282 584.367,-282 584.367,-318"/>
<text text-anchor="middle" x="525.367" y="-297.2" font-family="Courier,monospace" font-size="11.00">IntegratedTrait</text>
</g>
<!-- \\UniAlteri\\Bundle\\StatesBundle\\Factory\\StartupFactory -->
<g id="node5" class="node"><title>\\UniAlteri\\Bundle\\StatesBundle\\Factory\\StartupFactory</title>
<polygon fill="none" stroke="black" points="580.867,-184 469.867,-184 469.867,-148 580.867,-148 580.867,-184"/>
<text text-anchor="middle" x="525.367" y="-163.2" font-family="Courier,monospace" font-size="11.00">StartupFactory</text>
</g>
<!-- \\UniAlteri\\States\\Factory\\StandardStartupFactory -->
<g id="node11" class="node"><title>\\UniAlteri\\States\\Factory\\StandardStartupFactory</title>
<ellipse fill="none" stroke="black" cx="187.183" cy="-193" rx="185.467" ry="18"/>
<text text-anchor="middle" x="187.183" y="-189.3" font-family="Times,serif" font-size="14.00" fill="gray">\UniAlteri\States\Factory\StandardStartupFactory</text>
</g>
<!-- \\UniAlteri\\Bundle\\StatesBundle\\Factory\\StartupFactory&#45;&gt;\\UniAlteri\\States\\Factory\\StandardStartupFactory -->
<g id="edge5" class="edge"><title>\\UniAlteri\\Bundle\\StatesBundle\\Factory\\StartupFactory&#45;&gt;\\UniAlteri\\States\\Factory\\StandardStartupFactory</title>
<path fill="none" stroke="black" d="M469.605,-170.398C434.417,-173.224 386.827,-177.046 340.798,-180.743"/>
<polygon fill="none" stroke="black" points="340.384,-177.265 330.696,-181.554 340.945,-184.242 340.384,-177.265"/>
</g>
<!-- \\UniAlteri\\Bundle\\StatesBundle\\Factory\\Integrated -->
<g id="node6" class="node"><title>\\UniAlteri\\Bundle\\StatesBundle\\Factory\\Integrated</title>
<polygon fill="none" stroke="black" points="567.367,-130 483.367,-130 483.367,-94 567.367,-94 567.367,-130"/>
<text text-anchor="middle" x="525.367" y="-109.2" font-family="Courier,monospace" font-size="11.00">Integrated</text>
</g>
<!-- \\UniAlteri\\States\\Factory\\Integrated -->
<g id="node12" class="node"><title>\\UniAlteri\\States\\Factory\\Integrated</title>
<ellipse fill="none" stroke="black" cx="187.183" cy="-112" rx="137.576" ry="18"/>
<text text-anchor="middle" x="187.183" y="-108.3" font-family="Times,serif" font-size="14.00" fill="gray">\UniAlteri\States\Factory\Integrated</text>
</g>
<!-- \\UniAlteri\\Bundle\\StatesBundle\\Factory\\Integrated&#45;&gt;\\UniAlteri\\States\\Factory\\Integrated -->
<g id="edge6" class="edge"><title>\\UniAlteri\\Bundle\\StatesBundle\\Factory\\Integrated&#45;&gt;\\UniAlteri\\States\\Factory\\Integrated</title>
<path fill="none" stroke="black" d="M483.144,-112C446.006,-112 389.113,-112 335.167,-112"/>
<polygon fill="none" stroke="black" points="335.134,-108.5 325.134,-112 335.134,-115.5 335.134,-108.5"/>
</g>
<!-- \\UniAlteri\\Bundle\\StatesBundle\\Factory\\MongoStartupFactory -->
<g id="node7" class="node"><title>\\UniAlteri\\Bundle\\StatesBundle\\Factory\\MongoStartupFactory</title>
<polygon fill="none" stroke="black" points="597.867,-238 452.867,-238 452.867,-202 597.867,-202 597.867,-238"/>
<text text-anchor="middle" x="525.367" y="-217.2" font-family="Courier,monospace" font-size="11.00">MongoStartupFactory</text>
</g>
<!-- \\UniAlteri\\Bundle\\StatesBundle\\Factory\\MongoStartupFactory&#45;&gt;\\UniAlteri\\States\\Factory\\StandardStartupFactory -->
<g id="edge7" class="edge"><title>\\UniAlteri\\Bundle\\StatesBundle\\Factory\\MongoStartupFactory&#45;&gt;\\UniAlteri\\States\\Factory\\StandardStartupFactory</title>
<path fill="none" stroke="black" d="M452.659,-214.241C419.999,-211.618 380.007,-208.406 341.107,-205.282"/>
<polygon fill="none" stroke="black" points="340.958,-201.759 330.71,-204.447 340.398,-208.736 340.958,-201.759"/>
</g>
<!-- \\UniAlteri\\Bundle\\StatesBundle\\UniAlteriStatesBundle -->
<g id="node8" class="node"><title>\\UniAlteri\\Bundle\\StatesBundle\\UniAlteriStatesBundle</title>
<polygon fill="none" stroke="black" points="604.367,-76 446.367,-76 446.367,-40 604.367,-40 604.367,-76"/>
<text text-anchor="middle" x="525.367" y="-55.2" font-family="Courier,monospace" font-size="11.00">UniAlteriStatesBundle</text>
</g>
<!-- \\Symfony\\Component\\HttpKernel\\Bundle\\Bundle -->
<g id="node13" class="node"><title>\\Symfony\\Component\\HttpKernel\\Bundle\\Bundle</title>
<ellipse fill="none" stroke="black" cx="187.183" cy="-58" rx="187.367" ry="18"/>
<text text-anchor="middle" x="187.183" y="-54.3" font-family="Times,serif" font-size="14.00" fill="gray">\Symfony\Component\HttpKernel\Bundle\Bundle</text>
</g>
<!-- \\UniAlteri\\Bundle\\StatesBundle\\UniAlteriStatesBundle&#45;&gt;\\Symfony\\Component\\HttpKernel\\Bundle\\Bundle -->
<g id="edge8" class="edge"><title>\\UniAlteri\\Bundle\\StatesBundle\\UniAlteriStatesBundle&#45;&gt;\\Symfony\\Component\\HttpKernel\\Bundle\\Bundle</title>
<path fill="none" stroke="black" d="M445.971,-58C427.211,-58 406.344,-58 384.834,-58"/>
<polygon fill="none" stroke="black" points="384.571,-54.5001 374.571,-58 384.571,-61.5001 384.571,-54.5001"/>
</g>
</g>
</svg>
