<?xml version="1.0" encoding="UTF-8" standalone="no"?>
<!DOCTYPE svg PUBLIC "-//W3C//DTD SVG 1.1//EN"
 "http://www.w3.org/Graphics/SVG/1.1/DTD/svg11.dtd">
<!-- Generated by graphviz version 2.38.0 (20140413.2041)
 -->
<!-- Title: G Pages: 1 -->
<svg width="1186pt" height="1262pt"
 viewBox="0.00 0.00 1186.03 1262.00" xmlns="http://www.w3.org/2000/svg" xmlns:xlink="http://www.w3.org/1999/xlink">
<g id="graph0" class="graph" transform="scale(1 1) rotate(0) translate(4 1258)">
<title>G</title>
<polygon fill="white" stroke="none" points="-4,4 -4,-1258 1182.03,-1258 1182.03,4 -4,4"/>
<g id="clust1" class="cluster"><title>cluster_Global</title>
<path fill="none" stroke="gray" d="M578.648,-314C578.648,-314 1158.03,-314 1158.03,-314 1164.03,-314 1170.03,-320 1170.03,-326 1170.03,-326 1170.03,-1234 1170.03,-1234 1170.03,-1240 1164.03,-1246 1158.03,-1246 1158.03,-1246 578.648,-1246 578.648,-1246 572.648,-1246 566.648,-1240 566.648,-1234 566.648,-1234 566.648,-326 566.648,-326 566.648,-320 572.648,-314 578.648,-314"/>
<text text-anchor="middle" x="868.337" y="-1233.2" font-family="Times,serif" font-size="11.00" fill="gray">Global</text>
</g>
<g id="clust2" class="cluster"><title>cluster_\Teknoo</title>
<path fill="none" stroke="gray" d="M586.648,-322C586.648,-322 1150.03,-322 1150.03,-322 1156.03,-322 1162.03,-328 1162.03,-334 1162.03,-334 1162.03,-1206 1162.03,-1206 1162.03,-1212 1156.03,-1218 1150.03,-1218 1150.03,-1218 586.648,-1218 586.648,-1218 580.648,-1218 574.648,-1212 574.648,-1206 574.648,-1206 574.648,-334 574.648,-334 574.648,-328 580.648,-322 586.648,-322"/>
<text text-anchor="middle" x="868.337" y="-1205.2" font-family="Times,serif" font-size="11.00" fill="gray">Teknoo</text>
</g>
<g id="clust3" class="cluster"><title>cluster_\Teknoo\Bundle</title>
<path fill="none" stroke="gray" d="M594.648,-330C594.648,-330 1142.03,-330 1142.03,-330 1148.03,-330 1154.03,-336 1154.03,-342 1154.03,-342 1154.03,-1178 1154.03,-1178 1154.03,-1184 1148.03,-1190 1142.03,-1190 1142.03,-1190 594.648,-1190 594.648,-1190 588.648,-1190 582.648,-1184 582.648,-1178 582.648,-1178 582.648,-342 582.648,-342 582.648,-336 588.648,-330 594.648,-330"/>
<text text-anchor="middle" x="868.337" y="-1177.2" font-family="Times,serif" font-size="11.00" fill="gray">Bundle</text>
</g>
<g id="clust4" class="cluster"><title>cluster_\Teknoo\Bundle\StatesBundle</title>
<path fill="none" stroke="gray" d="M602.648,-338C602.648,-338 1134.03,-338 1134.03,-338 1140.03,-338 1146.03,-344 1146.03,-350 1146.03,-350 1146.03,-1150 1146.03,-1150 1146.03,-1156 1140.03,-1162 1134.03,-1162 1134.03,-1162 602.648,-1162 602.648,-1162 596.648,-1162 590.648,-1156 590.648,-1150 590.648,-1150 590.648,-350 590.648,-350 590.648,-344 596.648,-338 602.648,-338"/>
<text text-anchor="middle" x="868.337" y="-1149.2" font-family="Times,serif" font-size="11.00" fill="gray">StatesBundle</text>
</g>
<g id="clust5" class="cluster"><title>cluster_\Teknoo\Bundle\StatesBundle\Service</title>
<path fill="none" stroke="gray" d="M976.027,-1008C976.027,-1008 1126.03,-1008 1126.03,-1008 1132.03,-1008 1138.03,-1014 1138.03,-1020 1138.03,-1020 1138.03,-1122 1138.03,-1122 1138.03,-1128 1132.03,-1134 1126.03,-1134 1126.03,-1134 976.027,-1134 976.027,-1134 970.027,-1134 964.027,-1128 964.027,-1122 964.027,-1122 964.027,-1020 964.027,-1020 964.027,-1014 970.027,-1008 976.027,-1008"/>
<text text-anchor="middle" x="1051.03" y="-1121.2" font-family="Times,serif" font-size="11.00" fill="gray">Service</text>
</g>
<g id="clust6" class="cluster"><title>cluster_\Teknoo\Bundle\StatesBundle\Factory</title>
<path fill="none" stroke="gray" d="M610.648,-874C610.648,-874 1119.53,-874 1119.53,-874 1125.53,-874 1131.53,-880 1131.53,-886 1131.53,-886 1131.53,-988 1131.53,-988 1131.53,-994 1125.53,-1000 1119.53,-1000 1119.53,-1000 610.648,-1000 610.648,-1000 604.648,-1000 598.648,-994 598.648,-988 598.648,-988 598.648,-886 598.648,-886 598.648,-880 604.648,-874 610.648,-874"/>
<text text-anchor="middle" x="865.087" y="-987.2" font-family="Times,serif" font-size="11.00" fill="gray">Factory</text>
</g>
<g id="clust7" class="cluster"><title>cluster_\Teknoo\Bundle\StatesBundle\Doctrine</title>
<path fill="none" stroke="gray" d="M976.027,-794C976.027,-794 1126.03,-794 1126.03,-794 1132.03,-794 1138.03,-800 1138.03,-806 1138.03,-806 1138.03,-854 1138.03,-854 1138.03,-860 1132.03,-866 1126.03,-866 1126.03,-866 976.027,-866 976.027,-866 970.027,-866 964.027,-860 964.027,-854 964.027,-854 964.027,-806 964.027,-806 964.027,-800 970.027,-794 976.027,-794"/>
<text text-anchor="middle" x="1051.03" y="-853.2" font-family="Times,serif" font-size="11.00" fill="gray">Doctrine</text>
</g>
<g id="clust8" class="cluster"><title>cluster_\Teknoo\Bundle\StatesBundle\DependencyInjection</title>
<path fill="none" stroke="gray" d="M976.027,-660C976.027,-660 1126.03,-660 1126.03,-660 1132.03,-660 1138.03,-666 1138.03,-672 1138.03,-672 1138.03,-774 1138.03,-774 1138.03,-780 1132.03,-786 1126.03,-786 1126.03,-786 976.027,-786 976.027,-786 970.027,-786 964.027,-780 964.027,-774 964.027,-774 964.027,-672 964.027,-672 964.027,-666 970.027,-660 976.027,-660"/>
<text text-anchor="middle" x="1051.03" y="-773.2" font-family="Times,serif" font-size="11.00" fill="gray">DependencyInjection</text>
</g>
<g id="clust9" class="cluster"><title>cluster_\Teknoo\Bundle\StatesBundle\Document</title>
<path fill="none" stroke="gray" d="M986.027,-526C986.027,-526 1116.03,-526 1116.03,-526 1122.03,-526 1128.03,-532 1128.03,-538 1128.03,-538 1128.03,-640 1128.03,-640 1128.03,-646 1122.03,-652 1116.03,-652 1116.03,-652 986.027,-652 986.027,-652 980.027,-652 974.027,-646 974.027,-640 974.027,-640 974.027,-538 974.027,-538 974.027,-532 980.027,-526 986.027,-526"/>
<text text-anchor="middle" x="1051.03" y="-639.2" font-family="Times,serif" font-size="11.00" fill="gray">Document</text>
</g>
<g id="clust10" class="cluster"><title>cluster_\Teknoo\Bundle\StatesBundle\Entity</title>
<path fill="none" stroke="gray" d="M992.527,-392C992.527,-392 1109.53,-392 1109.53,-392 1115.53,-392 1121.53,-398 1121.53,-404 1121.53,-404 1121.53,-506 1121.53,-506 1121.53,-512 1115.53,-518 1109.53,-518 1109.53,-518 992.527,-518 992.527,-518 986.527,-518 980.527,-512 980.527,-506 980.527,-506 980.527,-404 980.527,-404 980.527,-398 986.527,-392 992.527,-392"/>
<text text-anchor="middle" x="1051.03" y="-505.2" font-family="Times,serif" font-size="11.00" fill="gray">Entity</text>
</g>
<!-- \\Teknoo\\Bundle\\StatesBundle\\Service\\ComposerFinderService -->
<g id="node1" class="node"><title>\\Teknoo\\Bundle\\StatesBundle\\Service\\ComposerFinderService</title>
<polygon fill="none" stroke="black" points="1130.03,-1106 972.027,-1106 972.027,-1070 1130.03,-1070 1130.03,-1106"/>
<text text-anchor="middle" x="1051.03" y="-1085.2" font-family="Courier,monospace" font-size="11.00">ComposerFinderService</text>
</g>
<!-- \\Teknoo\\Bundle\\StatesBundle\\Service\\BootstrapService -->
<g id="node2" class="node"><title>\\Teknoo\\Bundle\\StatesBundle\\Service\\BootstrapService</title>
<polygon fill="none" stroke="black" points="1113.53,-1052 988.527,-1052 988.527,-1016 1113.53,-1016 1113.53,-1052"/>
<text text-anchor="middle" x="1051.03" y="-1031.2" font-family="Courier,monospace" font-size="11.00">BootstrapService</text>
</g>
<!-- \\Teknoo\\Bundle\\StatesBundle\\Factory\\StartupFactory -->
<g id="node3" class="node"><title>\\Teknoo\\Bundle\\StatesBundle\\Factory\\StartupFactory</title>
<polygon fill="none" stroke="black" points="717.648,-972 606.648,-972 606.648,-936 717.648,-936 717.648,-972"/>
<text text-anchor="middle" x="662.148" y="-951.2" font-family="Courier,monospace" font-size="11.00">StartupFactory</text>
</g>
<!-- \\Teknoo\\States\\Factory\\StandardStartupFactory -->
<g id="node14" class="node"><title>\\Teknoo\\States\\Factory\\StandardStartupFactory</title>
<ellipse fill="none" stroke="black" cx="176.134" cy="-954" rx="176.269" ry="18"/>
<text text-anchor="middle" x="176.134" y="-950.3" font-family="Times,serif" font-size="14.00" fill="gray">Teknoo\States\Factory\StandardStartupFactory</text>
</g>
<!-- \\Teknoo\\Bundle\\StatesBundle\\Factory\\StartupFactory&#45;&gt;\\Teknoo\\States\\Factory\\StandardStartupFactory -->
<g id="edge1" class="edge"><title>\\Teknoo\\Bundle\\StatesBundle\\Factory\\StartupFactory&#45;&gt;\\Teknoo\\States\\Factory\\StandardStartupFactory</title>
<path fill="none" stroke="black" d="M606.566,-954C547.409,-954 449.754,-954 362.505,-954"/>
<polygon fill="none" stroke="black" points="362.466,-950.5 352.466,-954 362.466,-957.5 362.466,-950.5"/>
</g>
<!-- \\Teknoo\\Bundle\\StatesBundle\\Factory\\Integrated -->
<g id="node4" class="node"><title>\\Teknoo\\Bundle\\StatesBundle\\Factory\\Integrated</title>
<polygon fill="none" stroke="black" points="1093.03,-918 1009.03,-918 1009.03,-882 1093.03,-882 1093.03,-918"/>
<text text-anchor="middle" x="1051.03" y="-897.2" font-family="Courier,monospace" font-size="11.00">Integrated</text>
</g>
<!-- \\Teknoo\\States\\Factory\\Integrated -->
<g id="node15" class="node"><title>\\Teknoo\\States\\Factory\\Integrated</title>
<ellipse fill="none" stroke="black" cx="662.148" cy="-288" rx="128.077" ry="18"/>
<text text-anchor="middle" x="662.148" y="-284.3" font-family="Times,serif" font-size="14.00" fill="gray">Teknoo\States\Factory\Integrated</text>
</g>
<!-- \\Teknoo\\Bundle\\StatesBundle\\Factory\\Integrated&#45;&gt;\\Teknoo\\States\\Factory\\Integrated -->
<g id="edge2" class="edge"><title>\\Teknoo\\Bundle\\StatesBundle\\Factory\\Integrated&#45;&gt;\\Teknoo\\States\\Factory\\Integrated</title>
<path fill="none" stroke="black" d="M1008.65,-892.358C993.289,-887.883 976.568,-880.881 964.027,-870 779.547,-709.937 692.861,-408.93 669.703,-316.027"/>
<polygon fill="none" stroke="black" points="673.083,-315.115 667.307,-306.233 666.284,-316.778 673.083,-315.115"/>
</g>
<!-- \\Teknoo\\Bundle\\StatesBundle\\Factory\\MongoStartupFactory -->
<g id="node5" class="node"><title>\\Teknoo\\Bundle\\StatesBundle\\Factory\\MongoStartupFactory</title>
<polygon fill="none" stroke="black" points="1123.53,-972 978.527,-972 978.527,-936 1123.53,-936 1123.53,-972"/>
<text text-anchor="middle" x="1051.03" y="-951.2" font-family="Courier,monospace" font-size="11.00">MongoStartupFactory</text>
</g>
<!-- \\Teknoo\\Bundle\\StatesBundle\\Factory\\MongoStartupFactory&#45;&gt;\\Teknoo\\Bundle\\StatesBundle\\Factory\\StartupFactory -->
<g id="edge3" class="edge"><title>\\Teknoo\\Bundle\\StatesBundle\\Factory\\MongoStartupFactory&#45;&gt;\\Teknoo\\Bundle\\StatesBundle\\Factory\\StartupFactory</title>
<path fill="none" stroke="black" d="M978.164,-954C906.456,-954 797.262,-954 728.091,-954"/>
<polygon fill="none" stroke="black" points="727.765,-950.5 717.765,-954 727.765,-957.5 727.765,-950.5"/>
</g>
<!-- \\Teknoo\\Bundle\\StatesBundle\\Doctrine\\LoadClassMetaListener -->
<g id="node6" class="node"><title>\\Teknoo\\Bundle\\StatesBundle\\Doctrine\\LoadClassMetaListener</title>
<polygon fill="none" stroke="black" points="1130.03,-838 972.027,-838 972.027,-802 1130.03,-802 1130.03,-838"/>
<text text-anchor="middle" x="1051.03" y="-817.2" font-family="Courier,monospace" font-size="11.00">LoadClassMetaListener</text>
</g>
<!-- \\Teknoo\\Bundle\\StatesBundle\\DependencyInjection\\Configuration -->
<g id="node7" class="node"><title>\\Teknoo\\Bundle\\StatesBundle\\DependencyInjection\\Configuration</title>
<polygon fill="none" stroke="black" points="1103.03,-758 999.027,-758 999.027,-722 1103.03,-722 1103.03,-758"/>
<text text-anchor="middle" x="1051.03" y="-737.2" font-family="Courier,monospace" font-size="11.00">Configuration</text>
</g>
<!-- \\Symfony\\Component\\Config\\Definition\\ConfigurationInterface -->
<g id="node16" class="node"><title>\\Symfony\\Component\\Config\\Definition\\ConfigurationInterface</title>
<ellipse fill="none" stroke="black" cx="662.148" cy="-234" rx="237.758" ry="18"/>
<text text-anchor="middle" x="662.148" y="-230.3" font-family="Times,serif" font-size="14.00" fill="gray">\Symfony\Component\Config\Definition\ConfigurationInterface</text>
</g>
<!-- \\Teknoo\\Bundle\\StatesBundle\\DependencyInjection\\Configuration&#45;&gt;\\Symfony\\Component\\Config\\Definition\\ConfigurationInterface -->
<g id="edge4" class="edge"><title>\\Teknoo\\Bundle\\StatesBundle\\DependencyInjection\\Configuration&#45;&gt;\\Symfony\\Component\\Config\\Definition\\ConfigurationInterface</title>
<path fill="none" stroke="black" stroke-dasharray="1,5" d="M998.589,-733.808C985.589,-729.825 972.835,-723.381 964.027,-713 832.758,-558.294 1045.43,-402.505 900.027,-261 894.895,-256.006 889.375,-251.563 883.542,-247.62"/>
<polygon fill="none" stroke="black" points="885.127,-244.485 874.782,-242.196 881.441,-250.436 885.127,-244.485"/>
</g>
<!-- \\Teknoo\\Bundle\\StatesBundle\\DependencyInjection\\TeknooStatesExtension -->
<g id="node8" class="node"><title>\\Teknoo\\Bundle\\StatesBundle\\DependencyInjection\\TeknooStatesExtension</title>
<polygon fill="none" stroke="black" points="1130.03,-704 972.027,-704 972.027,-668 1130.03,-668 1130.03,-704"/>
<text text-anchor="middle" x="1051.03" y="-683.2" font-family="Courier,monospace" font-size="11.00">TeknooStatesExtension</text>
</g>
<!-- \\Symfony\\Component\\HttpKernel\\DependencyInjection\\Extension -->
<g id="node17" class="node"><title>\\Symfony\\Component\\HttpKernel\\DependencyInjection\\Extension</title>
<ellipse fill="none" stroke="black" cx="662.148" cy="-180" rx="236.658" ry="18"/>
<text text-anchor="middle" x="662.148" y="-176.3" font-family="Times,serif" font-size="14.00" fill="gray">\Symfony\ComponentHttpKernel\DependencyInjectionxtension</text>
</g>
<!-- \\Teknoo\\Bundle\\StatesBundle\\DependencyInjection\\TeknooStatesExtension&#45;&gt;\\Symfony\\Component\\HttpKernel\\DependencyInjection\\Extension -->
<g id="edge5" class="edge"><title>\\Teknoo\\Bundle\\StatesBundle\\DependencyInjection\\TeknooStatesExtension&#45;&gt;\\Symfony\\Component\\HttpKernel\\DependencyInjection\\Extension</title>
<path fill="none" stroke="black" d="M977.453,-667.882C972.423,-664.564 967.844,-660.641 964.027,-656 835.971,-500.329 1044.55,-347.517 900.027,-207 894.842,-201.96 889.263,-197.481 883.366,-193.512"/>
<polygon fill="none" stroke="black" points="884.858,-190.32 874.508,-188.054 881.186,-196.28 884.858,-190.32"/>
</g>
<!-- \\Teknoo\\Bundle\\StatesBundle\\Document\\IntegratedDocument -->
<g id="node9" class="node"><title>\\Teknoo\\Bundle\\StatesBundle\\Document\\IntegratedDocument</title>
<polygon fill="none" stroke="black" points="1120.03,-624 982.027,-624 982.027,-588 1120.03,-588 1120.03,-624"/>
<text text-anchor="start" x="1017.03" y="-609.2" font-family="Courier,monospace" font-size="11.00">«abstract»</text>
<text text-anchor="start" x="990.027" y="-597.2" font-family="Courier,monospace" font-size="11.00">IntegratedDocument</text>
</g>
<!-- \\Teknoo\\States\\Proxy\\ProxyInterface -->
<g id="node18" class="node"><title>\\Teknoo\\States\\Proxy\\ProxyInterface</title>
<ellipse fill="none" stroke="black" cx="662.148" cy="-126" rx="139.175" ry="18"/>
<text text-anchor="middle" x="662.148" y="-122.3" font-family="Times,serif" font-size="14.00" fill="gray">Teknoo\States\Proxy\ProxyInterface</text>
</g>
<!-- \\Teknoo\\Bundle\\StatesBundle\\Document\\IntegratedDocument&#45;&gt;\\Teknoo\\States\\Proxy\\ProxyInterface -->
<g id="edge6" class="edge"><title>\\Teknoo\\Bundle\\StatesBundle\\Document\\IntegratedDocument&#45;&gt;\\Teknoo\\States\\Proxy\\ProxyInterface</title>
<path fill="none" stroke="black" stroke-dasharray="1,5" d="M981.636,-592.794C974.987,-589.223 968.911,-584.707 964.027,-579 839.54,-433.538 1037.8,-285.948 900.027,-153 863.808,-118.05 808.551,-110.21 760.514,-111.612"/>
<polygon fill="none" stroke="black" points="760.224,-108.121 750.383,-112.045 760.523,-115.115 760.224,-108.121"/>
</g>
<!-- \\Teknoo\\States\\Proxy\\IntegratedInterface -->
<g id="node19" class="node"><title>\\Teknoo\\States\\Proxy\\IntegratedInterface</title>
<ellipse fill="none" stroke="black" cx="662.148" cy="-72" rx="153.273" ry="18"/>
<text text-anchor="middle" x="662.148" y="-68.3" font-family="Times,serif" font-size="14.00" fill="gray">Teknoo\States\Proxy\IntegratedInterface</text>
</g>
<!-- \\Teknoo\\Bundle\\StatesBundle\\Document\\IntegratedDocument&#45;&gt;\\Teknoo\\States\\Proxy\\IntegratedInterface -->
<g id="edge7" class="edge"><title>\\Teknoo\\Bundle\\StatesBundle\\Document\\IntegratedDocument&#45;&gt;\\Teknoo\\States\\Proxy\\IntegratedInterface</title>
<path fill="none" stroke="black" stroke-dasharray="1,5" d="M981.957,-593.097C975.162,-589.477 968.964,-584.867 964.027,-579 825.448,-414.33 1053.65,-249.727 900.027,-99 865.069,-64.7022 811.825,-56.3405 764.665,-57.267"/>
<polygon fill="none" stroke="black" points="764.267,-53.7783 754.391,-57.6143 764.504,-60.7743 764.267,-53.7783"/>
</g>
<!-- \\Teknoo\\Bundle\\StatesBundle\\Document\\IntegratedTrait -->
<g id="node10" class="node"><title>\\Teknoo\\Bundle\\StatesBundle\\Document\\IntegratedTrait</title>
<polygon fill="none" stroke="black" points="1110.03,-570 992.027,-570 992.027,-534 1110.03,-534 1110.03,-570"/>
<text text-anchor="middle" x="1051.03" y="-549.2" font-family="Courier,monospace" font-size="11.00">IntegratedTrait</text>
</g>
<!-- \\Teknoo\\Bundle\\StatesBundle\\Entity\\IntegratedEntity -->
<g id="node11" class="node"><title>\\Teknoo\\Bundle\\StatesBundle\\Entity\\IntegratedEntity</title>
<polygon fill="none" stroke="black" points="1113.53,-490 988.527,-490 988.527,-454 1113.53,-454 1113.53,-490"/>
<text text-anchor="start" x="1017.03" y="-475.2" font-family="Courier,monospace" font-size="11.00">«abstract»</text>
<text text-anchor="start" x="996.527" y="-463.2" font-family="Courier,monospace" font-size="11.00">IntegratedEntity</text>
</g>
<!-- \\Teknoo\\Bundle\\StatesBundle\\Entity\\IntegratedEntity&#45;&gt;\\Teknoo\\States\\Proxy\\ProxyInterface -->
<g id="edge8" class="edge"><title>\\Teknoo\\Bundle\\StatesBundle\\Entity\\IntegratedEntity&#45;&gt;\\Teknoo\\States\\Proxy\\ProxyInterface</title>
<path fill="none" stroke="black" stroke-dasharray="1,5" d="M988.438,-461.502C979.271,-457.601 970.683,-452.273 964.027,-445 874.326,-346.994 998.651,-242.02 900.027,-153 864.388,-120.832 812.416,-112.271 766.228,-112.528"/>
<polygon fill="none" stroke="black" points="766.094,-109.03 756.163,-112.722 766.229,-116.029 766.094,-109.03"/>
</g>
<!-- \\Teknoo\\Bundle\\StatesBundle\\Entity\\IntegratedEntity&#45;&gt;\\Teknoo\\States\\Proxy\\IntegratedInterface -->
<g id="edge9" class="edge"><title>\\Teknoo\\Bundle\\StatesBundle\\Entity\\IntegratedEntity&#45;&gt;\\Teknoo\\States\\Proxy\\IntegratedInterface</title>
<path fill="none" stroke="black" stroke-dasharray="1,5" d="M988.233,-461.686C979.09,-457.764 970.562,-452.381 964.027,-445 860.351,-327.919 1014.38,-205.678 900.027,-99 865.839,-67.1069 815.703,-58.102 770.349,-57.9964"/>
<polygon fill="none" stroke="black" points="770.106,-54.499 760.149,-58.1191 770.191,-61.4985 770.106,-54.499"/>
</g>
<!-- \\Teknoo\\Bundle\\StatesBundle\\Entity\\IntegratedTrait -->
<g id="node12" class="node"><title>\\Teknoo\\Bundle\\StatesBundle\\Entity\\IntegratedTrait</title>
<polygon fill="none" stroke="black" points="1110.03,-436 992.027,-436 992.027,-400 1110.03,-400 1110.03,-436"/>
<text text-anchor="middle" x="1051.03" y="-415.2" font-family="Courier,monospace" font-size="11.00">IntegratedTrait</text>
</g>
<!-- \\Teknoo\\Bundle\\StatesBundle\\TeknooStatesBundle -->
<g id="node13" class="node"><title>\\Teknoo\\Bundle\\StatesBundle\\TeknooStatesBundle</title>
<polygon fill="none" stroke="black" points="1120.03,-382 982.027,-382 982.027,-346 1120.03,-346 1120.03,-382"/>
<text text-anchor="middle" x="1051.03" y="-361.2" font-family="Courier,monospace" font-size="11.00">TeknooStatesBundle</text>
</g>
<!-- \\Symfony\\Component\\HttpKernel\\Bundle\\Bundle -->
<g id="node20" class="node"><title>\\Symfony\\Component\\HttpKernel\\Bundle\\Bundle</title>
<ellipse fill="none" stroke="black" cx="662.148" cy="-18" rx="184.667" ry="18"/>
<text text-anchor="middle" x="662.148" y="-14.3" font-family="Times,serif" font-size="14.00" fill="gray">\Symfony\ComponentHttpKernel\Bundle\Bundle</text>
</g>
<!-- \\Teknoo\\Bundle\\StatesBundle\\TeknooStatesBundle&#45;&gt;\\Symfony\\Component\\HttpKernel\\Bundle\\Bundle -->
<g id="edge10" class="edge"><title>\\Teknoo\\Bundle\\StatesBundle\\TeknooStatesBundle&#45;&gt;\\Symfony\\Component\\HttpKernel\\Bundle\\Bundle</title>
<path fill="none" stroke="black" d="M1047.6,-345.672C1039.13,-289.767 1005.44,-120.635 900.027,-45 886.659,-35.4085 871.731,-28.1446 856.05,-22.7168"/>
<polygon fill="none" stroke="black" points="856.787,-19.2782 846.196,-19.5701 854.658,-25.9464 856.787,-19.2782"/>
</g>
</g>
</svg>
